# AST/ASF file generated using VICON BodyLanguage
# -----------------------------------------------
:version 1.10
:name VICON
:units
  mass 1.0
  length 0.45
  angle deg
:documentation
   .ast/.asf automatically generated from VICON data using
   VICON BodyBuilder and BodyLanguage model FoxedUp or BRILLIANT.MOD
:root
   order TX TY TZ RX RY RZ
   axis XYZ
   position 0 0 0  
   orientation 0 0 0 
:bonedata
  begin
     id 1 
     name lhipjoint
     direction 0.722297 -0.617336 0.311742 
     length 2.6635 
     axis 0 0 0  XYZ
  end
  begin
     id 2 
     name lfemur
     direction 0.34202 -0.939693 0  
     length 7.39349  
     axis 0 0 20  XYZ
    dof rx ry rz
    limits (-160.0 20.0)
           (-70.0 70.0)
           (-60.0 70.0)
  end
  begin
     id 3 
     name ltibia
     direction 0.34202 -0.939693 0   
     length 7.36294   
     axis 0 0 20   XYZ
    dof rx
    limits (-10.0 170.0)
  end
  begin
     id 4 
     name lfoot
     direction 0.104879 -0.288152 0.951824   
     length 2.16981   
     axis -90 7.62852e-016 20   XYZ
    dof rx rz
    limits (-45.0 90.0)
           (-70.0 20.0)
  end
  begin
     id 5 
     name ltoes
     direction 1.53586e-011 -4.21895e-011 1   
     length 1.08218   
     axis -90 7.62852e-016 20   XYZ
    dof rx
    limits (-90.0 20.0)
  end
  begin
     id 6 
     name rhipjoint
     direction -0.75102 -0.589393 0.297631   
     length 2.78977  
     axis 0 0 0  XYZ 
  end
  begin
     id 7 
     name rfemur
     direction -0.34202 -0.939693 0   
     length 7.46076   
     axis 0 0 -20   XYZ
    dof rx ry rz
    limits (-160.0 20.0)
           (-70.0 70.0)
           (-70.0 60.0)
  end
  begin
     id 8 
     name rtibia
     direction -0.34202 -0.939693 0   
     length 7.31726   
     axis 0 0 -20   XYZ
    dof rx
    limits (-10.0 170.0)
 end
 begin
     id 9 
     name rfoot
     direction -0.107991 -0.296704 0.948844   
     length 2.09388  
     axis -90 -7.62852e-016 -20   XYZ
    dof rx rz
    limits (-45.0 90.0)
           (-20.0 70.0)
  end
  begin
     id 10 
     name rtoes
     direction -1.53559e-011 -4.21911e-011 1   
     length 1.04433   
     axis -90 -7.62852e-016 -20   XYZ
    dof rx
    limits (-90.0 20.0)
  end
  begin
     id 11 
     name lowerback
     direction 0.0165164 0.98272 0.184358   
     length 1.71896   
     axis 0 0 0   XYZ
    dof rx ry rz
    limits (-20.0 45.0)
           (-30.0 30.0)
           (-30.0 30.0)
  end
  begin
     id 12 
     name upperback
     direction -0.00887249 0.992297 0.123566   
     length 1.71504   
     axis 0 0 0   XYZ
    dof rx ry rz
    limits (-20.0 45.0)
           (-30.0 30.0)
           (-30.0 30.0)
  end
  begin
     id 13 
     name thorax
     direction -0.0157026 0.998908 0.0440032   
     length 1.77022   
     axis 0 0 0   XYZ
    dof rx ry rz
    limits (-20.0 45.0)
           (-30.0 30.0)
           (-30.0 30.0)
  end
  begin
     id 14 
     name lowerneck
     direction -0.0238856 0.998137 0.0561411   
     length 1.89341   
     axis 0 0 0   XYZ
    dof rx ry rz
    limits (-20.0 45.0)
           (-30.0 30.0)
           (-30.0 30.0)
  end
  begin
     id 15 
     name upperneck
     direction 0.0276574 0.952253 -0.304056   
     length 1.86999   
     axis 0 0 0   XYZ
    dof rx ry rz
    limits (-20.0 45.0)
           (-30.0 30.0)
           (-30.0 30.0)
  end
  begin
     id 16
     name head
     direction 0.00800083 0.994258 -0.106712  
     length 1.91492  
     axis 0 0 0   XYZ
    dof rx ry rz
    limits (-20.0 45.0)
           (-30.0 30.0)
           (-30.0 30.0)
  end
  begin
     id 17 
     name lclavicle
     direction 0.97203 0.225407 0.06595  
     length 3.34889  
     axis 0 0 0   XYZ
    dof ry rz
    limits (-20.0 10.0)
           (0.0 20.0)
  end
  begin
     id 18 
     name lhumerus
     direction 1 -4.48973e-011 2.20267e-027   
     length 4.85645   
     axis 180 -30 -90   XYZ
    dof rx ry rz
    limits (-60.0 90.0)
           (-90.0 90.0)
           (-90.0 90.0)
  end
  begin
     id 19
     name lradius
     direction 1 -4.4897e-011 4.60472e-027   
     length 2.79874   
     axis 180 -30 -90   XYZ
    dof rx
    limits (-10.0 170.0)
  end
  begin
     id 20
     name lwrist
     direction 1 -4.48952e-011 1.14928e-026   
     length 1.39937   
     axis -6.29373e-015 90 90   XYZ
    dof ry
    limits (-180.0 0.0)
 end
  begin
     id 21 
     name lhand
     direction 1 -4.48967e-011 2.29886e-026   
     length 0.573398   
     axis -1.46689e-014 90 90   XYZ
    dof rx rz
    limits (-90.0 90.0)
           (-45.0 45.0)
  end
  begin
     id 22 
     name lfingers
     direction 1 -4.48955e-011 4.59726e-026   
     length 0.462289   
     axis -2.93383e-014 90 90   XYZ
    dof rx
    limits (0.0 90.0)
  end
  begin
     id 23
     name lthumb
     direction 0.707107 -6.34866e-011 0.707107   
     length 0.663757   
     axis -90 45 5.69224e-014   XYZ
    dof rx rz
    limits (-45.0 45.0)
           (-45.0 45.0)
  end
  begin
     id 24 
     name rclavicle
     direction -0.981571 0.157346 0.108443   
     length 3.35257  
     axis 0 0 0   XYZ 
    dof ry rz
    limits (-10.0 20.0)
           (-20.0 0.0)
  end
  begin
     id 25 
     name rhumerus
     direction -1 -4.48967e-011 8.58308e-029  
     length 4.67018   
     axis 180 30 90   XYZ
    dof rx ry rz
    limits (-90.0 60.0)
           (-90.0 90.0)
           (-90.0 90.0)
  end
  begin
     id 26 
     name rradius
     direction -1 -4.48958e-011 4.52548e-027   
     length 2.65534   
     axis 180 30 90   XYZ
    dof rx
    limits (-10.0 170.0)
  end
  begin
     id 27 
     name rwrist
     direction -1 -4.48977e-011 1.14952e-026   
     length 1.32767   
     axis -6.29373e-015 -90 -90   XYZ
    dof ry
    limits (-180.0 0.0)
  end
  begin
     id 28
     name rhand
     direction -1 -4.48924e-011 2.29804e-026   
     length 0.594069   
     axis -1.46689e-014 -90 -90   XYZ
    dof rx rz
    limits (-90.0 90.0)
           (-45.0 45.0)
  end
  begin
     id 29
     name rfingers
     direction -1 -4.48998e-011 4.59888e-026   
     length 0.478954   
     axis -2.93383e-014 -90 -90   XYZ
    dof rx
    limits (0.0 90.0)
  end
  begin
     id 30
     name rthumb
     direction -0.707107 -6.34933e-011 0.707107   
     length 0.687685   
     axis -90 -45 -5.69224e-014   XYZ
    dof rx rz
    limits (-45.0 45.0)
           (-45.0 45.0)
  end
:hierarchy
  begin
    root lhipjoint rhipjoint lowerback
    lhipjoint lfemur
    lfemur ltibia
    ltibia lfoot
    lfoot ltoes
    rhipjoint rfemur
    rfemur rtibia
    rtibia rfoot
    rfoot rtoes
    lowerback upperback
    upperback thorax
    thorax lowerneck lclavicle rclavicle
    lowerneck upperneck
    upperneck head
    lclavicle lhumerus
    lhumerus lradius
    lradius lwrist
    lwrist lhand lthumb
    lhand lfingers
    rclavicle rhumerus
    rhumerus rradius
    rradius rwrist
    rwrist rhand rthumb
    rhand rfingers
  end

#!OML:ASF E:\pregnant2\Project 1\Capture day 1\Session 1\pregnant2.ASF
:FULLY-SPECIFIED
:DEGREES
392
root 4.69694 17.0071 -12.7799 -145.149 3.3839 176.492
lowerback -22.1505 -5.9939 -3.65055
upperback -17.2394 -2.6186 2.05558
thorax -6.41178 1.22399 3.61982
lowerneck -3.42078 -14.8698 -18.874
upperneck 36.7899 -16.4744 3.41674
head 15.7072 -7.95969 2.31406
rclavicle -7.40473e-015 1.78906e-014
rhumerus -41.1439 7.75322 -88.2911
rradius 33.1981
rwrist 9.71971
rhand -12.2796 -13.653
rfingers 7.12502
rthumb 13.7876 -43.1761
lclavicle -7.40473e-015 1.78906e-014
lhumerus -51.7833 9.12999 78.1752
lradius 26.0564
lwrist -8.1632
lhand -10.8034 26.9577
lfingers 7.12502
lthumb 15.2099 56.3786
rfemur -49.246 -2.23372 18.94
rtibia 64.6863
rfoot -4.19682 -4.91756
rtoes -12.71
lfemur -59.9456 -8.37561 -19.7916
ltibia 31.0118
lfoot -3.92087 11.0715
ltoes -15.3487
393
root 4.6762 17.0062 -12.8881 -145.101 3.7023 176.355
lowerback -22.1029 -6.13339 -3.89331
upperback -17.2872 -2.76907 2.15631
thorax -6.46153 1.17926 3.84112
lowerneck -2.98934 -15.1334 -19.3663
upperneck 36.5064 -16.9117 3.3851
head 15.6021 -8.24807 2.29886
rclavicle -1.25731e-014 2.34566e-014
rhumerus -41.4173 8.06322 -88.3316
rradius 32.9807
rwrist 10.1962
rhand -11.9147 -13.6998
rfingers 7.12502
rthumb 14.1392 -43.1986
lclavicle -1.25731e-014 2.34566e-014
lhumerus -51.662 8.74038 78.6539
lradius 26.5413
lwrist -7.86832
lhand -10.8069 27.2784
lfingers 7.12502
lthumb 15.2065 56.6996
rfemur -50.5028 -2.38109 18.7641
rtibia 66.2927
rfoot -4.52788 -5.70408
rtoes -12.2657
lfemur -59.7363 -8.14441 -20.3815
ltibia 31.4047
lfoot -4.55746 11.0724
ltoes -15.3328
394
root 4.65677 17.0071 -12.9941 -145.05 4 176.244
lowerback -22.0432 -6.26559 -4.09978
upperback -17.3495 -2.91129 2.25509
thorax -6.536 1.13869 4.04138
lowerneck -2.54583 -15.3746 -19.8364
upperneck 36.2797 -17.307 3.344
head 15.5161 -8.51062 2.28718
rclavicle -9.0944e-015 2.90226e-014
rhumerus -41.7355 8.36786 -88.3849
rradius 32.8286
rwrist 10.7616
rhand -11.5447 -13.8499
rfingers 7.12502
rthumb 14.4957 -43.3235
lclavicle -9.0944e-015 2.90226e-014
lhumerus -51.556 8.28586 79.1537
lradius 27.0944
lwrist -7.66544
lhand -10.8686 27.6721
lfingers 7.12502
lthumb 15.1471 57.0978
rfemur -51.7565 -2.4501 18.6264
rtibia 67.7374
rfoot -4.98966 -6.60535
rtoes -11.5514
lfemur -59.5195 -7.87017 -20.9637
ltibia 31.7592
lfoot -5.1758 11.0238
ltoes -15.3401
395
root 4.6381 17.0105 -13.0993 -145.001 4.25407 176.184
lowerback -21.9834 -6.38196 -4.22872
upperback -17.4085 -3.04595 2.3567
thorax -6.61034 1.09439 4.20293
lowerneck -2.13254 -15.595 -20.2583
upperneck 36.1098 -17.66 3.28338
head 15.4521 -8.74591 2.26809
rclavicle -3.30976e-014 -3.97569e-016
rhumerus -42.0775 8.6566 -88.4443
rradius 32.6886
rwrist 11.5793
rhand -11.3453 -13.9743
rfingers 7.12502
rthumb 14.6878 -43.434
lclavicle -3.30976e-014 -3.97569e-016
lhumerus -51.4273 7.77904 79.6743
lradius 27.6747
lwrist -7.58866
lhand -11.0409 28.1161
lfingers 7.12502
lthumb 14.9811 57.5542
rfemur -52.9706 -2.45971 18.5632
rtibia 68.9957
rfoot -5.43503 -7.54581
rtoes -10.6476
lfemur -59.2899 -7.57004 -21.4932
ltibia 32.0903
lfoot -5.78345 10.9491
ltoes -15.3593
396
root 4.62013 17.0152 -13.204 -144.958 4.48083 176.167
lowerback -21.9282 -6.47462 -4.29244
upperback -17.4592 -3.16181 2.45249
thorax -6.67741 1.05147 4.32512
lowerneck -1.73625 -15.7959 -20.6503
upperneck 35.9821 -17.9814 3.22789
head 15.4062 -8.95908 2.25296
rclavicle -1.88845e-014 -9.93923e-015
rhumerus -42.4299 8.89531 -88.488
rradius 32.5418
rwrist 12.6354
rhand -11.3116 -14.0753
rfingers 7.12502
rthumb 14.7204 -43.5326
lclavicle -1.88845e-014 -9.93923e-015
lhumerus -51.2762 7.23378 80.1992
lradius 28.2833
lwrist -7.69399
lhand -11.3596 28.5925
lfingers 7.12502
lthumb 14.6741 58.0533
rfemur -54.1467 -2.4223 18.5576
rtibia 70.0719
rfoot -5.81655 -8.45932
rtoes -9.81217
lfemur -59.0533 -7.26602 -21.9615
ltibia 32.4202
lfoot -6.3672 10.8889
ltoes -15.442
397
root 4.60312 17.019 -13.3086 -144.911 4.69456 176.193
lowerback -21.8857 -6.55255 -4.3069
upperback -17.4903 -3.27241 2.55431
thorax -6.71748 1.00238 4.42764
lowerneck -1.43768 -15.9779 -20.9729
upperneck 35.9025 -18.2612 3.1559
head 15.3875 -9.14409 2.22311
rclavicle 9.14409e-015 -3.57812e-015
rhumerus -42.7462 9.0997 -88.5122
rradius 32.3595
rwrist 13.9352
rhand -11.4846 -14.1245
rfingers 7.12502
rthumb 14.5536 -43.594
lclavicle 9.14409e-015 -3.57812e-015
lhumerus -51.0776 6.70543 80.6963
lradius 28.8872
lwrist -8.0264
lhand -11.866 29.0426
lfingers 7.12502
lthumb 14.1861 58.5382
rfemur -55.2952 -2.33869 18.6044
rtibia 70.971
rfoot -6.16477 -9.2768
rtoes -9.06089
lfemur -58.8351 -6.98007 -22.3437
ltibia 32.7683
lfoot -6.93886 10.8884
ltoes -15.5204
398
root 4.5868 17.021 -13.4117 -144.893 4.90627 176.246
lowerback -21.8235 -6.59209 -4.27694
upperback -17.4988 -3.35119 2.62953
thorax -6.74728 0.957394 4.48264
lowerneck -1.1704 -16.1427 -21.2379
upperneck 35.8356 -18.5228 3.10064
head 15.3727 -9.31013 2.19489
rclavicle 8.34896e-015 2.98177e-014
rhumerus -43.0367 9.19163 -88.4926
rradius 32.1441
rwrist 15.4327
rhand -11.854 -14.1417
rfingers 7.12502
rthumb 14.1977 -43.6365
lclavicle 8.34896e-015 2.98177e-014
lhumerus -50.8302 6.17433 81.1423
lradius 29.4581
lwrist -8.64747
lhand -12.5464 29.4343
lfingers 7.12502
lthumb 13.5304 58.9747
rfemur -56.3894 -2.22252 18.6833
rtibia 71.7079
rfoot -6.52347 -9.93643
rtoes -8.36214
lfemur -58.6072 -6.73389 -22.6474
ltibia 33.1415
lfoot -7.47144 10.9704
ltoes -15.636
399
root 4.57126 17.0208 -13.5143 -144.877 5.14347 176.295
lowerback -21.7736 -6.62227 -4.25321
upperback -17.4969 -3.41939 2.69502
thorax -6.76 0.915403 4.53222
lowerneck -0.957259 -16.2849 -21.4496
upperneck 35.796 -18.7459 3.04549
head 15.3693 -9.45055 2.1641
rclavicle -2.21645e-014 1.07344e-014
rhumerus -43.3065 9.22341 -88.4342
rradius 31.9027
rwrist 17.0108
rhand -12.3357 -14.1808
rfingers 7.12502
rthumb 13.7335 -43.7076
lclavicle -2.21645e-014 1.07344e-014
lhumerus -50.5632 5.69199 81.5159
lradius 29.9849
lwrist -9.55246
lhand -13.4362 29.7614
lfingers 7.12502
lthumb 12.6727 59.357
rfemur -57.4678 -2.07146 18.7469
rtibia 72.2853
rfoot -6.90003 -10.4014
rtoes -7.69931
lfemur -58.3946 -6.54047 -22.9004
ltibia 33.5358
lfoot -7.9705 11.1511
ltoes -15.7643
400
root 4.55692 17.0182 -13.6163 -144.857 5.41765 176.33
lowerback -21.7271 -6.65224 -4.25657
upperback -17.5017 -3.48052 2.75091
thorax -6.77867 0.880457 4.58751
lowerneck -0.771493 -16.3968 -21.6021
upperneck 35.7753 -18.9211 2.98485
head 15.3637 -9.56138 2.13253
rclavicle -1.26228e-014 1.59028e-015
rhumerus -43.5679 9.1835 -88.3342
rradius 31.6423
rwrist 18.5514
rhand -12.8441 -14.2669
rfingers 7.12502
rthumb 13.2434 -43.8262
lclavicle -1.26228e-014 1.59028e-015
lhumerus -50.2991 5.29863 81.7748
lradius 30.4439
lwrist -10.7661
lhand -14.4825 30.0044
lfingers 7.12502
lthumb 11.6639 59.6597
rfemur -58.5409 -1.87852 18.7759
rtibia 72.7019
rfoot -7.29334 -10.6811
rtoes -7.10812
lfemur -58.1994 -6.40105 -23.116
ltibia 33.9376
lfoot -8.43379 11.4279
ltoes -15.8832
401
root 4.54309 17.0151 -13.7181 -144.846 5.69694 176.367
lowerback -21.6821 -6.67718 -4.25028
upperback -17.4981 -3.5401 2.79925
thorax -6.78773 0.842677 4.62955
lowerneck -0.627264 -16.4801 -21.6824
upperneck 35.7624 -19.0514 2.91621
head 15.3513 -9.64354 2.09601
rclavicle 2.9122e-014 0
rhumerus -43.8044 9.08537 -88.1965
rradius 31.3789
rwrist 19.9737
rhand -13.3198 -14.4009
rfingers 7.12502
rthumb 12.7849 -43.9894
lclavicle 2.9122e-014 0
lhumerus -50.0117 4.98763 81.9274
lradius 30.823
lwrist -12.2115
lhand -15.6575 30.1816
lfingers 7.12502
lthumb 10.5306 59.8979
rfemur -59.57 -1.66522 18.8052
rtibia 72.9433
rfoot -7.68889 -10.7961
rtoes -6.71618
lfemur -57.9937 -6.31761 -23.2766
ltibia 34.3288
lfoot -8.86415 11.7774
ltoes -15.9837
402
root 4.52996 17.0117 -13.8202 -144.827 5.98365 176.404
lowerback -21.6928 -6.70199 -4.2408
upperback -17.4631 -3.60507 2.8412
thorax -6.7315 0.795176 4.66073
lowerneck -0.592769 -16.5487 -21.6872
upperneck 35.7608 -19.1534 2.84522
head 15.3503 -9.70389 2.04657
rclavicle 5.66536e-015 4.77083e-015
rhumerus -43.9542 8.94569 -88.0261
rradius 31.1433
rwrist 21.0887
rhand -13.565 -14.6473
rfingers 7.12502
rthumb 12.5485 -44.2505
lclavicle 5.66536e-015 4.77083e-015
lhumerus -49.6615 4.78515 81.9598
lradius 31.1394
lwrist -13.8333
lhand -16.8895 30.3244
lfingers 7.12502
lthumb 9.342 60.0974
rfemur -60.5675 -1.43143 18.8314
rtibia 73.0046
rfoot -8.07544 -10.7795
rtoes -6.53214
lfemur -57.7893 -6.27612 -23.3997
ltibia 34.7026
lfoot -9.27573 12.1789
ltoes -16.0643
403
root 4.51768 17.0084 -13.923 -144.812 6.2795 176.422
lowerback -21.7146 -6.73487 -4.25427
upperback -17.4205 -3.6788 2.87973
thorax -6.65863 0.743604 4.69918
lowerneck -0.61011 -16.589 -21.6273
upperneck 35.7586 -19.212 2.77358
head 15.3425 -9.73689 1.99498
rclavicle -3.72721e-014 -2.06736e-014
rhumerus -44.0747 8.78413 -87.8291
rradius 30.9195
rwrist 21.9565
rhand -13.6909 -14.8958
rfingers 7.12502
rthumb 12.4271 -44.5064
lclavicle -3.72721e-014 -2.06736e-014
lhumerus -49.2849 4.66832 81.898
lradius 31.392
lwrist -15.5216
lhand -18.1183 30.4551
lfingers 7.12502
lthumb 8.15615 60.2777
rfemur -61.5184 -1.19156 18.8397
rtibia 72.8893
rfoot -8.46855 -10.6659
rtoes -6.54478
lfemur -57.5675 -6.26183 -23.5247
ltibia 35.0532
lfoot -9.68353 12.6012
ltoes -16.0644
404
root 4.50599 17.0055 -14.0258 -144.794 6.55622 176.447
lowerback -21.7448 -6.76441 -4.2492
upperback -17.3742 -3.75041 2.91613
thorax -6.57852 0.690865 4.7248
lowerneck -0.627642 -16.6009 -21.5589
upperneck 35.7276 -19.2493 2.75669
head 15.3226 -9.75422 1.9703
rclavicle -1.39149e-015 -3.57812e-015
rhumerus -44.1694 8.58474 -87.599
rradius 30.7122
rwrist 22.5594
rhand -13.6847 -15.1344
rfingers 7.12502
rthumb 12.4331 -44.7446
lclavicle -1.39149e-015 -3.57812e-015
lhumerus -48.8878 4.60135 81.7734
lradius 31.6194
lwrist -17.149
lhand -19.2726 30.607
lfingers 7.12502
lthumb 7.04197 60.4698
rfemur -62.4219 -0.95482 18.8747
rtibia 72.6063
rfoot -8.8641 -10.4884
rtoes -6.71704
lfemur -57.3381 -6.25546 -23.6339
ltibia 35.3835
lfoot -10.0772 13.0114
ltoes -16.0492
405
root 4.49544 17.0013 -14.1289 -144.765 6.85246 176.442
lowerback -21.7964 -6.80082 -4.28661
upperback -17.3237 -3.82279 2.94625
thorax -6.48057 0.641127 4.7663
lowerneck -0.662898 -16.5885 -21.4742
upperneck 35.6767 -19.264 2.77944
head 15.2954 -9.75559 1.96397
rclavicle 1.54058e-014 -1.19271e-015
rhumerus -44.2367 8.3831 -87.3532
rradius 30.522
rwrist 22.8741
rhand -13.5372 -15.3746
rfingers 7.12502
rthumb 12.5753 -44.9761
lclavicle 1.54058e-014 -1.19271e-015
lhumerus -48.4711 4.58304 81.6011
lradius 31.8555
lwrist -18.6033
lhand -20.2886 30.7723
lfingers 7.12502
lthumb 6.06118 60.6656
rfemur -63.3088 -0.716349 18.8818
rtibia 72.1777
rfoot -9.27113 -10.2696
rtoes -6.9844
lfemur -57.1113 -6.23157 -23.7969
ltibia 35.6971
lfoot -10.4866 13.3955
ltoes -15.9875
406
root 4.48624 16.9948 -14.2304 -144.758 7.17662 176.396
lowerback -21.7991 -6.82915 -4.38237
upperback -17.2858 -3.87676 2.95455
thorax -6.4216 0.606862 4.82098
lowerneck -0.675883 -16.5599 -21.3601
upperneck 35.6012 -19.2654 2.81383
head 15.246 -9.74641 1.96485
rclavicle 1.99779e-014 2.06736e-014
rhumerus -44.3177 8.13724 -87.0813
rradius 30.3584
rwrist 22.9142
rhand -13.2695 -15.6118
rfingers 7.12502
rthumb 12.8334 -45.1973
lclavicle 1.99779e-014 2.06736e-014
lhumerus -48.0666 4.55737 81.4166
lradius 32.1373
lwrist -19.7878
lhand -21.0752 30.9033
lfingers 7.12502
lthumb 5.30177 60.817
rfemur -64.1612 -0.473884 18.8492
rtibia 71.6163
rfoot -9.67403 -10.0379
rtoes -7.33433
lfemur -56.8661 -6.16919 -24.0434
ltibia 36.0044
lfoot -10.9038 13.735
ltoes -15.9242
